<?xml version="1.0" standalone="no"?>
<!DOCTYPE svg PUBLIC "-//W3C//DTD SVG 20010904//EN"
 "http://www.w3.org/TR/2001/REC-SVG-20010904/DTD/svg10.dtd">
<svg version="1.0" xmlns="http://www.w3.org/2000/svg"
 width="200.000000pt" height="200.000000pt" viewBox="0 0 200.000000 200.000000"
 preserveAspectRatio="xMidYMid meet">
<metadata>
Created by potrace 1.11, written by Peter Selinger 2001-2013
</metadata>
<g transform="translate(0.000000,200.000000) scale(0.100000,-0.100000)"
fill="#000000" stroke="none">
<path d="M870 1993 c-302 -46 -557 -211 -717 -463 -162 -255 -197 -600 -88
-881 123 -318 379 -544 711 -625 104 -25 316 -27 426 -4 196 42 363 133 503
274 152 154 241 324 280 536 17 94 13 289 -9 387 -84 382 -391 683 -776 762
-80 16 -263 24 -330 14z m360 -73 c46 -11 127 -42 180 -68 l95 -47 -253 -3
c-138 -1 -366 -1 -505 0 l-252 3 71 37 c199 103 446 133 664 78z m441 -252
l82 -83 -376 -3 c-207 -1 -547 -1 -754 0 l-378 3 83 83 82 82 590 0 589 0 82
-82z m-706 -150 c-3 -11 -347 -1129 -377 -1228 -6 -19 -13 -38 -17 -42 -4 -4
-26 72 -49 170 -23 97 -58 245 -78 327 -19 83 -37 157 -39 166 -2 8 -33 141
-69 295 -36 153 -68 289 -71 302 l-5 22 354 0 c280 0 354 -3 351 -12z m785 -5
c0 -10 -5 -35 -11 -57 -6 -21 -12 -46 -14 -55 -2 -9 -31 -126 -64 -261 -33
-135 -92 -375 -131 -535 -83 -341 -92 -373 -96 -360 -1 6 -71 224 -155 485
-203 638 -249 783 -249 792 0 4 162 8 360 8 336 0 360 -1 360 -17z m-1420
-500 c60 -257 130 -550 153 -650 24 -101 42 -183 39 -183 -14 0 -146 103 -198
156 -130 130 -208 280 -261 499 -10 42 -11 253 -2 310 16 98 49 194 97 289 38
75 47 86 53 68 4 -11 58 -232 119 -489z m1515 417 c43 -86 84 -207 93 -280 14
-111 6 -290 -17 -380 -57 -219 -197 -421 -379 -548 -34 -24 -62 -42 -62 -40 0
2 18 78 41 168 22 91 42 172 44 180 7 33 90 372 161 663 42 169 78 307 80 307
2 0 20 -31 39 -70z m-760 -255 c31 -99 77 -243 101 -320 25 -77 60 -187 79
-245 18 -58 58 -183 89 -279 31 -95 56 -177 56 -181 0 -23 -214 -85 -332 -97
l-58 -5 0 657 c0 362 2 656 4 654 2 -2 29 -85 61 -184z m-115 -481 l0 -645
-62 6 c-77 8 -200 38 -263 65 -40 17 -46 24 -42 43 5 24 50 171 152 497 37
118 68 222 70 230 2 8 18 60 35 115 17 55 48 153 67 218 20 64 38 117 40 117
1 0 3 -290 3 -646z"/>
</g>
</svg>
